<svg xmlns="http://www.w3.org/2000/svg" viewBox="0 0 834 1100" width="834" height="1100" preserveAspectRatio="xMidYMid slice">
<defs>
<radialGradient id="bloom" cx="50%" cy="45%" r="60%"><stop offset="0" stop-color="#bff36a" stop-opacity="0.45"/><stop offset="55%" stop-color="#8FFF24" stop-opacity="0.10"/><stop offset="100%" stop-color="#8FFF24" stop-opacity="0"/></radialGradient>
<radialGradient id="gold" cx="50%" cy="50%" r="50%"><stop offset="0" stop-color="#FDCC06" stop-opacity="0.30"/><stop offset="100%" stop-color="#FDCC06" stop-opacity="0"/></radialGradient>
<radialGradient id="green" cx="50%" cy="50%" r="50%"><stop offset="0" stop-color="#8FFF24" stop-opacity="0.28"/><stop offset="100%" stop-color="#8FFF24" stop-opacity="0"/></radialGradient>
<linearGradient id="base" x1="0" y1="0" x2="1" y2="1"><stop offset="0" stop-color="#FCFBF7"/><stop offset="0.55" stop-color="#F7F3E9"/><stop offset="1" stop-color="#F1ECDD"/></linearGradient>
<linearGradient id="rf" x1="0" y1="0" x2="0" y2="1"><stop offset="0" stop-color="#FCFBF7" stop-opacity="0.92"/><stop offset="0.40" stop-color="#FCFBF7" stop-opacity="0.40"/><stop offset="0.62" stop-color="#FCFBF7" stop-opacity="0"/></linearGradient></defs>
<rect width="834" height="1100" fill="url(#base)"/>
<circle cx="820" cy="40" r="420" fill="url(#gold)"/>
<circle cx="560" cy="1130" r="460" fill="url(#green)"/>
<g stroke="#1c3a2e" stroke-width="1" opacity="0.05"><line x1="0" y1="0" x2="0" y2="1100"/><line x1="36" y1="0" x2="36" y2="1100"/><line x1="72" y1="0" x2="72" y2="1100"/><line x1="108" y1="0" x2="108" y2="1100"/><line x1="144" y1="0" x2="144" y2="1100"/><line x1="180" y1="0" x2="180" y2="1100"/><line x1="216" y1="0" x2="216" y2="1100"/><line x1="252" y1="0" x2="252" y2="1100"/><line x1="288" y1="0" x2="288" y2="1100"/><line x1="324" y1="0" x2="324" y2="1100"/><line x1="360" y1="0" x2="360" y2="1100"/><line x1="396" y1="0" x2="396" y2="1100"/><line x1="432" y1="0" x2="432" y2="1100"/><line x1="468" y1="0" x2="468" y2="1100"/><line x1="504" y1="0" x2="504" y2="1100"/><line x1="540" y1="0" x2="540" y2="1100"/><line x1="576" y1="0" x2="576" y2="1100"/><line x1="612" y1="0" x2="612" y2="1100"/><line x1="648" y1="0" x2="648" y2="1100"/><line x1="684" y1="0" x2="684" y2="1100"/><line x1="720" y1="0" x2="720" y2="1100"/><line x1="756" y1="0" x2="756" y2="1100"/><line x1="792" y1="0" x2="792" y2="1100"/><line x1="828" y1="0" x2="828" y2="1100"/><line x1="0" y1="0" x2="834" y2="0"/><line x1="0" y1="36" x2="834" y2="36"/><line x1="0" y1="72" x2="834" y2="72"/><line x1="0" y1="108" x2="834" y2="108"/><line x1="0" y1="144" x2="834" y2="144"/><line x1="0" y1="180" x2="834" y2="180"/><line x1="0" y1="216" x2="834" y2="216"/><line x1="0" y1="252" x2="834" y2="252"/><line x1="0" y1="288" x2="834" y2="288"/><line x1="0" y1="324" x2="834" y2="324"/><line x1="0" y1="360" x2="834" y2="360"/><line x1="0" y1="396" x2="834" y2="396"/><line x1="0" y1="432" x2="834" y2="432"/><line x1="0" y1="468" x2="834" y2="468"/><line x1="0" y1="504" x2="834" y2="504"/><line x1="0" y1="540" x2="834" y2="540"/><line x1="0" y1="576" x2="834" y2="576"/><line x1="0" y1="612" x2="834" y2="612"/><line x1="0" y1="648" x2="834" y2="648"/><line x1="0" y1="684" x2="834" y2="684"/><line x1="0" y1="720" x2="834" y2="720"/><line x1="0" y1="756" x2="834" y2="756"/><line x1="0" y1="792" x2="834" y2="792"/><line x1="0" y1="828" x2="834" y2="828"/><line x1="0" y1="864" x2="834" y2="864"/><line x1="0" y1="900" x2="834" y2="900"/><line x1="0" y1="936" x2="834" y2="936"/><line x1="0" y1="972" x2="834" y2="972"/><line x1="0" y1="1008" x2="834" y2="1008"/><line x1="0" y1="1044" x2="834" y2="1044"/><line x1="0" y1="1080" x2="834" y2="1080"/></g>
<circle cx="565" cy="815" r="420.00" fill="url(#bloom)"/>
<g fill="none" stroke="#2f7d57" stroke-width="1.43" opacity="0.55"><ellipse cx="565" cy="590.00" rx="198.43" ry="31.75"/><ellipse cx="565" cy="665.00" rx="259.81" ry="41.57"/><ellipse cx="565" cy="740.00" rx="290.47" ry="46.48"/><ellipse cx="565" cy="815.00" rx="300.00" ry="48.00"/><ellipse cx="565" cy="890.00" rx="290.47" ry="46.48"/><ellipse cx="565" cy="965.00" rx="259.81" ry="41.57"/><ellipse cx="565" cy="1040.00" rx="198.43" ry="31.75"/><ellipse cx="565" cy="815" rx="0.00" ry="300"/><ellipse cx="565" cy="815" rx="150.00" ry="300"/><ellipse cx="565" cy="815" rx="259.81" ry="300"/><ellipse cx="565" cy="815" rx="300.00" ry="300"/><ellipse cx="565" cy="815" rx="259.81" ry="300"/><ellipse cx="565" cy="815" rx="150.00" ry="300"/><ellipse cx="565" cy="815" rx="0.00" ry="300"/></g><g fill="none" stroke="#7bd23e" stroke-width="2.40" opacity="0.9"><circle cx="565" cy="815" r="300"/></g>
<g fill="none" stroke="#caa42a" stroke-width="2.00" stroke-linecap="round" stroke-dasharray="2.00 12.00" opacity="0.75"><path d="M 413.07 674.16 Q 594.01 654.35 753.62 752.63"/><path d="M 753.62 752.63 Q 723.98 876.97 601.16 965.00"/><path d="M 413.07 674.16 Q 467.24 822.73 601.16 965.00"/><path d="M 753.62 752.63 Q 820.43 803.32 827.31 856.75"/></g>
<circle cx="413.07" cy="674.16" r="20.00" fill="#8FFF24" opacity="0.18"/><circle cx="413.07" cy="674.16" r="13.00" fill="#8FFF24"/><circle cx="413.07" cy="674.16" r="13.00" fill="none" stroke="#0e2a22" stroke-width="2.00" opacity="0.25"/><circle cx="753.62" cy="752.63" r="22.00" fill="#FDCC06" opacity="0.18"/><circle cx="753.62" cy="752.63" r="15.00" fill="#FDCC06"/><circle cx="753.62" cy="752.63" r="15.00" fill="none" stroke="#0e2a22" stroke-width="2.00" opacity="0.25"/><circle cx="601.16" cy="965.00" r="18.00" fill="#8FFF24" opacity="0.18"/><circle cx="601.16" cy="965.00" r="11.00" fill="#8FFF24"/><circle cx="601.16" cy="965.00" r="11.00" fill="none" stroke="#0e2a22" stroke-width="2.00" opacity="0.25"/><circle cx="827.31" cy="856.75" r="16.00" fill="#FDCC06" opacity="0.18"/><circle cx="827.31" cy="856.75" r="9.00" fill="#FDCC06"/><circle cx="827.31" cy="856.75" r="9.00" fill="none" stroke="#0e2a22" stroke-width="2.00" opacity="0.25"/><circle cx="532.93" cy="578.60" r="15.00" fill="#8FFF24" opacity="0.18"/><circle cx="532.93" cy="578.60" r="8.00" fill="#8FFF24"/><circle cx="532.93" cy="578.60" r="8.00" fill="none" stroke="#0e2a22" stroke-width="2.00" opacity="0.25"/>
<rect width="834" height="1100" fill="url(#rf)"/>
</svg>