<svg xmlns="http://www.w3.org/2000/svg" viewBox="0 0 1600 900" width="1600" height="900" preserveAspectRatio="xMidYMid slice">
<defs>
<radialGradient id="bloom" cx="50%" cy="45%" r="60%">
  <stop offset="0" stop-color="#bff36a" stop-opacity="0.45"/>
  <stop offset="55%" stop-color="#8FFF24" stop-opacity="0.10"/>
  <stop offset="100%" stop-color="#8FFF24" stop-opacity="0"/>
</radialGradient>
<radialGradient id="goldBlob" cx="50%" cy="50%" r="50%">
  <stop offset="0" stop-color="#FDCC06" stop-opacity="0.30"/>
  <stop offset="100%" stop-color="#FDCC06" stop-opacity="0"/>
</radialGradient>
<radialGradient id="greenBlob" cx="50%" cy="50%" r="50%">
  <stop offset="0" stop-color="#8FFF24" stop-opacity="0.28"/>
  <stop offset="100%" stop-color="#8FFF24" stop-opacity="0"/>
</radialGradient>
<linearGradient id="base" x1="0" y1="0" x2="1" y2="1">
  <stop offset="0" stop-color="#FCFBF7"/>
  <stop offset="0.55" stop-color="#F7F3E9"/>
  <stop offset="1" stop-color="#F1ECDD"/>
</linearGradient>
<linearGradient id="readfade" x1="0" y1="0" x2="1" y2="0">
  <stop offset="0" stop-color="#FCFBF7" stop-opacity="0.92"/>
  <stop offset="0.42" stop-color="#FCFBF7" stop-opacity="0.35"/>
  <stop offset="0.62" stop-color="#FCFBF7" stop-opacity="0"/>
</linearGradient>
</defs>
<rect width="1600" height="900" fill="url(#base)"/>
<circle cx="1500" cy="80" r="420" fill="url(#goldBlob)"/>
<circle cx="1420" cy="900" r="460" fill="url(#greenBlob)"/>
<g stroke="#1c3a2e" stroke-width="1" opacity="0.05"><line x1="0" y1="0" x2="0" y2="900"/><line x1="40" y1="0" x2="40" y2="900"/><line x1="80" y1="0" x2="80" y2="900"/><line x1="120" y1="0" x2="120" y2="900"/><line x1="160" y1="0" x2="160" y2="900"/><line x1="200" y1="0" x2="200" y2="900"/><line x1="240" y1="0" x2="240" y2="900"/><line x1="280" y1="0" x2="280" y2="900"/><line x1="320" y1="0" x2="320" y2="900"/><line x1="360" y1="0" x2="360" y2="900"/><line x1="400" y1="0" x2="400" y2="900"/><line x1="440" y1="0" x2="440" y2="900"/><line x1="480" y1="0" x2="480" y2="900"/><line x1="520" y1="0" x2="520" y2="900"/><line x1="560" y1="0" x2="560" y2="900"/><line x1="600" y1="0" x2="600" y2="900"/><line x1="640" y1="0" x2="640" y2="900"/><line x1="680" y1="0" x2="680" y2="900"/><line x1="720" y1="0" x2="720" y2="900"/><line x1="760" y1="0" x2="760" y2="900"/><line x1="800" y1="0" x2="800" y2="900"/><line x1="840" y1="0" x2="840" y2="900"/><line x1="880" y1="0" x2="880" y2="900"/><line x1="920" y1="0" x2="920" y2="900"/><line x1="960" y1="0" x2="960" y2="900"/><line x1="1000" y1="0" x2="1000" y2="900"/><line x1="1040" y1="0" x2="1040" y2="900"/><line x1="1080" y1="0" x2="1080" y2="900"/><line x1="1120" y1="0" x2="1120" y2="900"/><line x1="1160" y1="0" x2="1160" y2="900"/><line x1="1200" y1="0" x2="1200" y2="900"/><line x1="1240" y1="0" x2="1240" y2="900"/><line x1="1280" y1="0" x2="1280" y2="900"/><line x1="1320" y1="0" x2="1320" y2="900"/><line x1="1360" y1="0" x2="1360" y2="900"/><line x1="1400" y1="0" x2="1400" y2="900"/><line x1="1440" y1="0" x2="1440" y2="900"/><line x1="1480" y1="0" x2="1480" y2="900"/><line x1="1520" y1="0" x2="1520" y2="900"/><line x1="1560" y1="0" x2="1560" y2="900"/><line x1="1600" y1="0" x2="1600" y2="900"/><line x1="0" y1="0" x2="1600" y2="0"/><line x1="0" y1="40" x2="1600" y2="40"/><line x1="0" y1="80" x2="1600" y2="80"/><line x1="0" y1="120" x2="1600" y2="120"/><line x1="0" y1="160" x2="1600" y2="160"/><line x1="0" y1="200" x2="1600" y2="200"/><line x1="0" y1="240" x2="1600" y2="240"/><line x1="0" y1="280" x2="1600" y2="280"/><line x1="0" y1="320" x2="1600" y2="320"/><line x1="0" y1="360" x2="1600" y2="360"/><line x1="0" y1="400" x2="1600" y2="400"/><line x1="0" y1="440" x2="1600" y2="440"/><line x1="0" y1="480" x2="1600" y2="480"/><line x1="0" y1="520" x2="1600" y2="520"/><line x1="0" y1="560" x2="1600" y2="560"/><line x1="0" y1="600" x2="1600" y2="600"/><line x1="0" y1="640" x2="1600" y2="640"/><line x1="0" y1="680" x2="1600" y2="680"/><line x1="0" y1="720" x2="1600" y2="720"/><line x1="0" y1="760" x2="1600" y2="760"/><line x1="0" y1="800" x2="1600" y2="800"/><line x1="0" y1="840" x2="1600" y2="840"/><line x1="0" y1="880" x2="1600" y2="880"/></g>
<circle cx="1185" cy="470" r="420" fill="url(#bloom)"/>
<g fill="none" stroke="#2f7d57" stroke-width="1.4" opacity="0.55"><ellipse cx="1185" cy="245.00" rx="198.43" ry="31.75"/><ellipse cx="1185" cy="320.00" rx="259.81" ry="41.57"/><ellipse cx="1185" cy="395.00" rx="290.47" ry="46.48"/><ellipse cx="1185" cy="470.00" rx="300.00" ry="48.00"/><ellipse cx="1185" cy="545.00" rx="290.47" ry="46.48"/><ellipse cx="1185" cy="620.00" rx="259.81" ry="41.57"/><ellipse cx="1185" cy="695.00" rx="198.43" ry="31.75"/><ellipse cx="1185" cy="470" rx="0.00" ry="300"/><ellipse cx="1185" cy="470" rx="150.00" ry="300"/><ellipse cx="1185" cy="470" rx="259.81" ry="300"/><ellipse cx="1185" cy="470" rx="300.00" ry="300"/><ellipse cx="1185" cy="470" rx="259.81" ry="300"/><ellipse cx="1185" cy="470" rx="150.00" ry="300"/><ellipse cx="1185" cy="470" rx="0.00" ry="300"/></g><g fill="none" stroke="#7bd23e" stroke-width="2.4" opacity="0.9"><circle cx="1185" cy="470" r="300"/></g>
<g fill="none" stroke="#caa42a" stroke-width="2" stroke-linecap="round" stroke-dasharray="2 12" opacity="0.75"><path d="M 1033.07 329.16 Q 1214.01 309.35 1373.62 407.63"/><path d="M 1373.62 407.63 Q 1343.98 531.97 1221.16 620.00"/><path d="M 1033.07 329.16 Q 1087.24 477.73 1221.16 620.00"/><path d="M 1373.62 407.63 Q 1440.43 458.32 1447.31 511.75"/></g>
<circle cx="1033.07" cy="329.16" r="20" fill="#8FFF24" opacity="0.18"/><circle cx="1033.07" cy="329.16" r="13" fill="#8FFF24"/><circle cx="1033.07" cy="329.16" r="13" fill="none" stroke="#0e2a22" stroke-width="2" opacity="0.25"/><circle cx="1373.62" cy="407.63" r="22" fill="#FDCC06" opacity="0.18"/><circle cx="1373.62" cy="407.63" r="15" fill="#FDCC06"/><circle cx="1373.62" cy="407.63" r="15" fill="none" stroke="#0e2a22" stroke-width="2" opacity="0.25"/><circle cx="1221.16" cy="620.00" r="18" fill="#8FFF24" opacity="0.18"/><circle cx="1221.16" cy="620.00" r="11" fill="#8FFF24"/><circle cx="1221.16" cy="620.00" r="11" fill="none" stroke="#0e2a22" stroke-width="2" opacity="0.25"/><circle cx="1447.31" cy="511.75" r="16" fill="#FDCC06" opacity="0.18"/><circle cx="1447.31" cy="511.75" r="9" fill="#FDCC06"/><circle cx="1447.31" cy="511.75" r="9" fill="none" stroke="#0e2a22" stroke-width="2" opacity="0.25"/><circle cx="1152.93" cy="233.60" r="15" fill="#8FFF24" opacity="0.18"/><circle cx="1152.93" cy="233.60" r="8" fill="#8FFF24"/><circle cx="1152.93" cy="233.60" r="8" fill="none" stroke="#0e2a22" stroke-width="2" opacity="0.25"/>
<rect width="1600" height="900" fill="url(#readfade)"/>
</svg>