<svg xmlns="http://www.w3.org/2000/svg" viewBox="0 0 480 880" width="480" height="880" preserveAspectRatio="xMidYMid slice">
<defs>
<radialGradient id="bloom" cx="50%" cy="45%" r="60%"><stop offset="0" stop-color="#bff36a" stop-opacity="0.45"/><stop offset="55%" stop-color="#8FFF24" stop-opacity="0.10"/><stop offset="100%" stop-color="#8FFF24" stop-opacity="0"/></radialGradient>
<radialGradient id="gold" cx="50%" cy="50%" r="50%"><stop offset="0" stop-color="#FDCC06" stop-opacity="0.30"/><stop offset="100%" stop-color="#FDCC06" stop-opacity="0"/></radialGradient>
<radialGradient id="green" cx="50%" cy="50%" r="50%"><stop offset="0" stop-color="#8FFF24" stop-opacity="0.28"/><stop offset="100%" stop-color="#8FFF24" stop-opacity="0"/></radialGradient>
<linearGradient id="base" x1="0" y1="0" x2="1" y2="1"><stop offset="0" stop-color="#FCFBF7"/><stop offset="0.55" stop-color="#F7F3E9"/><stop offset="1" stop-color="#F1ECDD"/></linearGradient>
<linearGradient id="rf" x1="0" y1="0" x2="0" y2="1"><stop offset="0" stop-color="#FCFBF7" stop-opacity="0.92"/><stop offset="0.40" stop-color="#FCFBF7" stop-opacity="0.40"/><stop offset="0.62" stop-color="#FCFBF7" stop-opacity="0"/></linearGradient></defs>
<rect width="480" height="880" fill="url(#base)"/>
<circle cx="470" cy="30" r="300" fill="url(#gold)"/>
<circle cx="300" cy="900" r="360" fill="url(#green)"/>
<g stroke="#1c3a2e" stroke-width="1" opacity="0.05"><line x1="0" y1="0" x2="0" y2="880"/><line x1="30" y1="0" x2="30" y2="880"/><line x1="60" y1="0" x2="60" y2="880"/><line x1="90" y1="0" x2="90" y2="880"/><line x1="120" y1="0" x2="120" y2="880"/><line x1="150" y1="0" x2="150" y2="880"/><line x1="180" y1="0" x2="180" y2="880"/><line x1="210" y1="0" x2="210" y2="880"/><line x1="240" y1="0" x2="240" y2="880"/><line x1="270" y1="0" x2="270" y2="880"/><line x1="300" y1="0" x2="300" y2="880"/><line x1="330" y1="0" x2="330" y2="880"/><line x1="360" y1="0" x2="360" y2="880"/><line x1="390" y1="0" x2="390" y2="880"/><line x1="420" y1="0" x2="420" y2="880"/><line x1="450" y1="0" x2="450" y2="880"/><line x1="480" y1="0" x2="480" y2="880"/><line x1="0" y1="0" x2="480" y2="0"/><line x1="0" y1="30" x2="480" y2="30"/><line x1="0" y1="60" x2="480" y2="60"/><line x1="0" y1="90" x2="480" y2="90"/><line x1="0" y1="120" x2="480" y2="120"/><line x1="0" y1="150" x2="480" y2="150"/><line x1="0" y1="180" x2="480" y2="180"/><line x1="0" y1="210" x2="480" y2="210"/><line x1="0" y1="240" x2="480" y2="240"/><line x1="0" y1="270" x2="480" y2="270"/><line x1="0" y1="300" x2="480" y2="300"/><line x1="0" y1="330" x2="480" y2="330"/><line x1="0" y1="360" x2="480" y2="360"/><line x1="0" y1="390" x2="480" y2="390"/><line x1="0" y1="420" x2="480" y2="420"/><line x1="0" y1="450" x2="480" y2="450"/><line x1="0" y1="480" x2="480" y2="480"/><line x1="0" y1="510" x2="480" y2="510"/><line x1="0" y1="540" x2="480" y2="540"/><line x1="0" y1="570" x2="480" y2="570"/><line x1="0" y1="600" x2="480" y2="600"/><line x1="0" y1="630" x2="480" y2="630"/><line x1="0" y1="660" x2="480" y2="660"/><line x1="0" y1="690" x2="480" y2="690"/><line x1="0" y1="720" x2="480" y2="720"/><line x1="0" y1="750" x2="480" y2="750"/><line x1="0" y1="780" x2="480" y2="780"/><line x1="0" y1="810" x2="480" y2="810"/><line x1="0" y1="840" x2="480" y2="840"/><line x1="0" y1="870" x2="480" y2="870"/></g>
<circle cx="320" cy="655" r="287.00" fill="url(#bloom)"/>
<g fill="none" stroke="#2f7d57" stroke-width="1.00" opacity="0.55"><ellipse cx="320" cy="501.25" rx="135.59" ry="21.70"/><ellipse cx="320" cy="552.50" rx="177.54" ry="28.41"/><ellipse cx="320" cy="603.75" rx="198.49" ry="31.76"/><ellipse cx="320" cy="655.00" rx="205.00" ry="32.80"/><ellipse cx="320" cy="706.25" rx="198.49" ry="31.76"/><ellipse cx="320" cy="757.50" rx="177.54" ry="28.41"/><ellipse cx="320" cy="808.75" rx="135.59" ry="21.70"/><ellipse cx="320" cy="655" rx="0.00" ry="205"/><ellipse cx="320" cy="655" rx="102.50" ry="205"/><ellipse cx="320" cy="655" rx="177.54" ry="205"/><ellipse cx="320" cy="655" rx="205.00" ry="205"/><ellipse cx="320" cy="655" rx="177.54" ry="205"/><ellipse cx="320" cy="655" rx="102.50" ry="205"/><ellipse cx="320" cy="655" rx="0.00" ry="205"/></g><g fill="none" stroke="#7bd23e" stroke-width="1.64" opacity="0.9"><circle cx="320" cy="655" r="205"/></g>
<g fill="none" stroke="#caa42a" stroke-width="1.37" stroke-linecap="round" stroke-dasharray="1.37 8.20" opacity="0.75"><path d="M 216.18 558.76 Q 339.82 545.22 448.89 612.38"/><path d="M 448.89 612.38 Q 428.63 697.35 344.71 757.50"/><path d="M 216.18 558.76 Q 253.20 660.28 344.71 757.50"/><path d="M 448.89 612.38 Q 494.55 647.02 499.24 683.53"/></g>
<circle cx="216.18" cy="558.76" r="13.67" fill="#8FFF24" opacity="0.18"/><circle cx="216.18" cy="558.76" r="8.88" fill="#8FFF24"/><circle cx="216.18" cy="558.76" r="8.88" fill="none" stroke="#0e2a22" stroke-width="1.37" opacity="0.25"/><circle cx="448.89" cy="612.38" r="15.03" fill="#FDCC06" opacity="0.18"/><circle cx="448.89" cy="612.38" r="10.25" fill="#FDCC06"/><circle cx="448.89" cy="612.38" r="10.25" fill="none" stroke="#0e2a22" stroke-width="1.37" opacity="0.25"/><circle cx="344.71" cy="757.50" r="12.30" fill="#8FFF24" opacity="0.18"/><circle cx="344.71" cy="757.50" r="7.52" fill="#8FFF24"/><circle cx="344.71" cy="757.50" r="7.52" fill="none" stroke="#0e2a22" stroke-width="1.37" opacity="0.25"/><circle cx="499.24" cy="683.53" r="10.93" fill="#FDCC06" opacity="0.18"/><circle cx="499.24" cy="683.53" r="6.15" fill="#FDCC06"/><circle cx="499.24" cy="683.53" r="6.15" fill="none" stroke="#0e2a22" stroke-width="1.37" opacity="0.25"/><circle cx="298.08" cy="493.46" r="10.25" fill="#8FFF24" opacity="0.18"/><circle cx="298.08" cy="493.46" r="5.47" fill="#8FFF24"/><circle cx="298.08" cy="493.46" r="5.47" fill="none" stroke="#0e2a22" stroke-width="1.37" opacity="0.25"/>
<rect width="480" height="880" fill="url(#rf)"/>
</svg>