<svg xmlns="http://www.w3.org/2000/svg" viewBox="0 0 1771.1 432.0" width="1771" height="432" role="img" aria-label="SYNERGY Global IT Solutions">
<defs><linearGradient id="sg" x1="0" y1="0" x2="0" y2="1" gradientUnits="objectBoundingBox"><stop offset="0" stop-color="#FDCC06"/><stop offset="0.46" stop-color="#FDCC06"/><stop offset="0.555" stop-color="#8FFF24"/><stop offset="1" stop-color="#8FFF24"/></linearGradient></defs>

<g transform="translate(70.00,73.00) scale(0.20295)"><g transform="translate(-0.00,-0.00)"><path d="M 458.40314798173586,0.5168422306908909 C 415.7031479817359,3.016842230690891 369.1031479817359,10.416842230690982 331.40314798173586,20.416842230690982 C 320.7031479817359,23.316842230691073 278.80314798173583,36.51684223069089 276.2031479817359,37.81684223069107 C 275.30314798173595,38.31684223069107 269.0031479817359,41.01684223069112 262.2031479817359,43.91684223069098 C 255.40314798173588,46.716842230690936 248.80314798173592,49.61684223069103 247.40314798173588,50.31684223069107 C 246.0031479817359,51.11684223069103 240.0031479817359,54.11684223069103 233.90314798173588,57.01684223069089 C 221.10314798173587,63.1168422306908 204.7031479817359,72.21684223069093 195.40314798173588,78.21684223069093 C 191.80314798173586,80.61684223069102 186.2031479817359,84.21684223069093 182.90314798173588,86.31684223069107 C 175.40314798173588,91.11684223069102 154.8031479817359,106.41684223069097 146.90314798173588,113.21684223069093 C 98.80314798173589,154.21684223069093 62.60314798173587,203.71684223069093 43.403147981735884,254.91684223069097 C 41.70314798173588,259.5168422306909 39.60314798173589,264.916842230691 38.903147981735884,266.916842230691 C 37.50314798173588,270.616842230691 31.603147981735887,291.616842230691 29.603147981735887,299.81684223069107 C 22.80314798173589,327.81684223069107 19.70314798173588,361.31684223069107 20.703147981735896,394.81684223069107 C 21.1031479817359,406.116842230691 21.80314798173589,419.116842230691 22.30314798173589,423.81684223069107 C 22.903147981735884,428.5168422306911 23.603147981735887,434.81684223069107 23.903147981735884,437.81684223069107 C 24.20314798173588,440.81684223069107 24.903147981735884,444.9168422306911 25.403147981735884,446.81684223069107 C 25.903147981735884,448.71684223069104 26.603147981735887,453.0168422306911 26.903147981735884,456.31684223069107 C 27.30314798173589,459.616842230691 28.50314798173588,465.71684223069104 29.603147981735887,469.81684223069107 C 30.70314798173588,473.9168422306911 32.20314798173588,479.9168422306911 33.00314798173589,483.016842230691 C 34.50314798173589,489.416842230691 41.80314798173589,511.616842230691 44.00314798173589,516.516842230691 C 44.80314798173589,518.316842230691 46.10314798173589,521.516842230691 47.00314798173589,523.516842230691 C 50.00314798173589,530.6168422306911 62.50314798173591,555.316842230691 65.80314798173589,560.916842230691 C 78.7031479817359,582.6168422306911 92.6031479817359,600.6168422306911 112.1031479817359,620.416842230691 C 124.5031479817359,633.1168422306911 145.1031479817359,651.016842230691 153.7031479817359,656.516842230691 C 156.0031479817359,658.016842230691 159.1031479817359,660.1168422306911 160.5031479817359,661.3168422306911 C 166.5031479817359,666.1168422306911 171.0031479817359,668.9168422306911 189.40314798173588,679.8168422306911 C 201.40314798173588,687.0168422306912 238.30314798173586,705.8168422306911 240.2031479817359,705.8168422306911 C 240.90314798173588,705.8168422306911 241.7031479817359,706.5168422306912 242.0031479817359,707.3168422306911 C 242.40314798173588,708.1168422306911 243.0031479817359,708.6168422306911 243.40314798173588,708.3168422306911 C 244.2031479817359,707.8168422306911 251.40314798173588,710.6168422306911 276.40314798173586,721.2168422306911 C 279.40314798173586,722.516842230691 284.2031479817359,724.3168422306911 286.90314798173586,725.2168422306911 C 289.7031479817359,726.1168422306911 300.0031479817359,729.6168422306911 309.90314798173586,732.916842230691 C 325.6031479817359,738.216842230691 333.5031479817359,740.716842230691 348.40314798173586,744.8168422306911 C 360.90314798173586,748.2168422306911 372.1031479817359,751.1168422306911 379.90314798173586,752.8168422306911 C 384.90314798173586,754.0168422306912 389.80314798173583,755.3168422306911 390.90314798173586,755.8168422306911 C 392.0031479817359,756.3168422306911 397.6031479817359,757.6168422306911 403.40314798173586,758.8168422306911 C 409.2031479817359,760.0168422306912 417.5031479817359,761.7168422306911 421.90314798173586,762.7168422306911 C 429.5031479817359,764.4168422306911 434.7031479817359,765.516842230691 461.90314798173586,771.416842230691 C 468.5031479817359,772.816842230691 480.7031479817358,775.516842230691 488.90314798173586,777.416842230691 C 497.2031479817358,779.316842230691 505.90314798173586,781.316842230691 508.40314798173586,781.8168422306911 C 510.90314798173586,782.3168422306911 517.0031479817359,783.6168422306911 521.9031479817359,784.7168422306911 C 526.9031479817359,785.8168422306911 532.7031479817358,787.016842230691 534.9031479817359,787.416842230691 C 537.1031479817359,787.716842230691 540.3031479817358,788.416842230691 541.9031479817359,788.8168422306911 C 543.6031479817359,789.3168422306911 547.4031479817359,790.2168422306911 550.4031479817359,790.8168422306911 C 553.4031479817359,791.4168422306911 558.2031479817358,792.5168422306912 560.9031479817359,793.3168422306911 C 563.7031479817358,794.0168422306912 569.1031479817359,795.3168422306911 572.9031479817359,796.2168422306911 C 590.4031479817359,800.1168422306911 602.3031479817358,803.016842230691 606.4031479817359,804.3168422306911 C 608.9031479817359,805.0168422306912 616.5031479817359,807.3168422306911 623.4031479817359,809.4168422306911 C 630.3031479817358,811.4168422306911 636.4031479817359,813.3168422306911 636.9031479817359,813.7168422306911 C 637.5031479817359,814.016842230691 638.4031479817359,814.3168422306911 638.9031479817359,814.4168422306911 C 650.1031479817359,816.1168422306912 697.4031479817359,836.2168422306911 718.1031479817359,847.9168422306911 C 719.9031479817359,849.0168422306912 723.1031479817359,850.7168422306911 725.2031479817359,851.9168422306911 C 727.2031479817359,853.1168422306912 730.303147981736,855.0168422306912 731.9031479817359,856.3168422306911 C 733.6031479817359,857.5168422306912 738.6031479817359,861.0168422306912 743.1031479817359,864.016842230691 C 747.6031479817359,867.1168422306911 753.6031479817359,871.516842230691 756.6031479817359,873.9168422306911 C 764.4031479817359,880.3168422306911 780.6031479817359,896.8168422306911 785.6031479817359,903.4168422306911 C 796.1031479817359,917.3168422306911 797.6031479817359,919.5168422306912 798.6031479817359,922.0168422306912 C 799.1031479817359,923.6168422306911 799.9031479817359,924.8168422306911 800.303147981736,924.8168422306911 C 801.403147981736,924.8168422306911 811.803147981736,946.2168422306911 814.803147981736,954.7168422306911 C 822.2031479817359,975.5168422306912 825.2031479817359,992.3168422306911 826.1031479817359,1017.3168422306911 C 826.6031479817359,1032.516842230691 826.303147981736,1038.816842230691 825.0031479817359,1048.816842230691 C 823.3031479817358,1060.516842230691 817.8031479817358,1084.216842230691 815.2031479817359,1090.516842230691 C 810.303147981736,1102.816842230691 802.303147981736,1118.816842230691 801.303147981736,1118.816842230691 C 800.803147981736,1118.816842230691 800.403147981736,1119.416842230691 800.4031479817359,1120.016842230691 C 800.4031479817359,1122.516842230691 791.7031479817358,1134.916842230691 779.803147981736,1149.616842230691 C 765.303147981736,1167.516842230691 737.7031479817359,1190.816842230691 717.0031479817359,1202.516842230691 C 713.6031479817359,1204.416842230691 709.3031479817358,1206.816842230691 707.4031479817359,1208.016842230691 C 702.6031479817359,1210.816842230691 682.7031479817358,1220.816842230691 681.803147981736,1220.816842230691 C 681.403147981736,1220.816842230691 678.2031479817359,1222.216842230691 674.7031479817359,1223.816842230691 C 661.903147981736,1229.816842230691 627.1031479817359,1240.616842230691 606.4031479817359,1244.916842230691 C 578.7031479817358,1250.716842230691 516.5031479817359,1256.116842230691 497.40314798173586,1254.416842230691 C 493.80314798173583,1254.116842230691 483.90314798173586,1253.616842230691 475.40314798173586,1253.316842230691 C 466.90314798173586,1253.016842230691 456.30314798173583,1252.316842230691 451.90314798173586,1251.816842230691 C 423.5031479817359,1248.416842230691 417.30314798173583,1247.616842230691 412.40314798173586,1246.716842230691 C 407.80314798173583,1245.916842230691 397.2031479817359,1243.716842230691 395.40314798173586,1243.316842230691 C 395.1031479817359,1243.216842230691 392.90314798173586,1242.816842230691 390.40314798173586,1242.416842230691 C 387.90314798173586,1242.016842230691 381.2031479817359,1240.316842230691 375.40314798173586,1238.616842230691 C 369.6031479817359,1237.016842230691 363.1031479817359,1235.316842230691 360.90314798173586,1234.816842230691 C 355.6031479817359,1233.616842230691 332.5031479817359,1225.816842230691 324.40314798173586,1222.316842230691 C 306.6031479817359,1214.816842230691 285.80314798173583,1204.216842230691 282.6031479817359,1201.116842230691 C 281.90314798173597,1200.416842230691 280.80314798173595,1199.816842230691 280.30314798173595,1199.816842230691 C 279.0031479817359,1199.816842230691 265.90314798173597,1191.216842230691 264.40314798173586,1189.316842230691 C 263.7031479817359,1188.516842230691 262.7031479817359,1187.816842230691 262.2031479817359,1187.816842230691 C 256.90314798173586,1187.816842230691 209.2031479817359,1142.816842230691 205.10314798173587,1134.016842230691 C 204.50314798173585,1132.816842230691 203.7031479817359,1131.816842230691 203.2031479817359,1131.816842230691 C 202.80314798173592,1131.816842230691 202.40314798173588,1131.116842230691 202.40314798173588,1130.316842230691 C 202.40314798173588,1129.616842230691 201.80314798173586,1128.516842230691 201.10314798173587,1128.116842230691 C 199.80314798173586,1127.316842230691 188.40314798173588,1110.416842230691 188.40314798173588,1109.316842230691 C 188.40314798173588,1108.916842230691 187.10314798173587,1106.716842230691 185.40314798173588,1104.316842230691 C 183.8031479817359,1101.916842230691 182.40314798173588,1099.716842230691 182.40314798173588,1099.316842230691 C 182.40314798173588,1099.016842230691 180.2031479817359,1094.116842230691 177.5031479817359,1088.516842230691 C 169.80314798173592,1072.516842230691 167.9031479817359,1067.416842230691 162.40314798173588,1049.816842230691 C 155.3031479817359,1027.216842230691 150.90314798173588,1018.6168422306911 139.8031479817359,1005.416842230691 C 126.00314798173588,989.1168422306911 105.40314798173588,980.8168422306911 78.7031479817359,980.8168422306911 C 45.703147981735896,980.8168422306911 21.80314798173589,995.6168422306911 8.30314798173589,1024.216842230691 C 2.103147981735887,1037.516842230691 0.10314798173588713,1048.016842230691 0.003147981735892813,1067.816842230691 C -0.0968520182641015,1083.516842230691 2.2031479817358957,1105.916842230691 4.403147981735884,1111.316842230691 C 4.903147981735884,1112.416842230691 6.003147981735879,1116.716842230691 7.003147981735893,1120.816842230691 C 9.80314798173589,1133.116842230691 14.80314798173589,1147.716842230691 21.103147981735887,1161.816842230691 C 25.003147981735893,1170.616842230691 35.50314798173589,1191.016842230691 39.703147981735896,1198.116842230691 C 42.30314798173589,1202.416842230691 44.4031479817359,1206.216842230691 44.403147981735884,1206.416842230691 C 44.403147981735884,1206.716842230691 44.903147981735884,1207.416842230691 45.403147981735884,1208.116842230691 C 46.00314798173588,1208.816842230691 49.70314798173588,1213.916842230691 53.703147981735896,1219.516842230691 C 57.703147981735896,1225.016842230691 62.403147981735884,1231.316842230691 64.1031479817359,1233.516842230691 C 65.90314798173591,1235.616842230691 67.40314798173591,1237.616842230691 67.40314798173588,1238.016842230691 C 67.40314798173588,1240.616842230691 110.50314798173588,1283.416842230691 121.2031479817359,1291.516842230691 C 125.40314798173588,1294.716842230691 129.6031479817359,1298.016842230691 130.5031479817359,1298.916842230691 C 131.4031479817359,1299.816842230691 135.2031479817359,1302.716842230691 139.0031479817359,1305.316842230691 C 142.80314798173592,1308.016842230691 147.9031479817359,1311.616842230691 150.40314798173588,1313.416842230691 C 155.8031479817359,1317.416842230691 180.10314798173587,1332.816842230691 182.3031479817359,1333.616842230691 C 183.1031479817359,1333.916842230691 186.60314798173587,1335.916842230691 190.0031479817359,1337.916842230691 C 197.80314798173592,1342.716842230691 228.7031479817359,1357.516842230691 234.40314798173588,1359.316842230691 C 235.80314798173586,1359.716842230691 237.40314798173588,1360.416842230691 237.90314798173588,1360.816842230691 C 238.5031479817359,1361.216842230691 242.5031479817359,1363.016842230691 246.90314798173588,1364.816842230691 C 251.30314798173586,1366.516842230691 256.0031479817359,1368.516842230691 257.40314798173586,1369.116842230691 C 258.80314798173583,1369.716842230691 261.7031479817359,1370.716842230691 263.90314798173586,1371.416842230691 C 266.1031479817359,1372.016842230691 273.1031479817359,1374.416842230691 279.40314798173586,1376.616842230691 C 285.7031479817359,1378.816842230691 294.5031479817359,1381.616842230691 298.90314798173586,1382.816842230691 C 303.30314798173583,1384.016842230691 310.5031479817359,1386.116842230691 314.90314798173586,1387.316842230691 C 324.90314798173586,1390.116842230691 331.5031479817359,1391.716842230691 337.90314798173586,1392.816842230691 C 340.7031479817359,1393.316842230691 347.2031479817359,1394.616842230691 352.5031479817359,1395.716842230691 C 365.6031479817359,1398.416842230691 386.1031479817359,1402.016842230691 390.40314798173586,1402.416842230691 C 392.30314798173583,1402.516842230691 400.40314798173586,1403.416842230691 408.40314798173586,1404.216842230691 C 445.7031479817358,1408.216842230691 472.40314798173586,1409.516842230691 511.40314798173586,1409.116842230691 C 594.5031479817359,1408.316842230691 674.0031479817359,1394.716842230691 736.9031479817359,1370.716842230691 C 747.8031479817358,1366.516842230691 760.8031479817358,1361.116842230691 767.1031479817359,1358.216842230691 C 769.9031479817359,1356.916842230691 772.6031479817359,1355.816842230691 773.0031479817359,1355.816842230691 C 773.9031479817359,1355.816842230691 787.7031479817359,1348.816842230691 800.303147981736,1341.916842230691 C 805.503147981736,1339.116842230691 809.803147981736,1336.816842230691 810.0031479817359,1336.816842230691 C 810.9031479817359,1336.816842230691 841.6031479817359,1317.016842230691 846.4031479817359,1313.316842230691 C 849.4031479817359,1311.016842230691 852.9031479817359,1308.516842230691 854.0031479817359,1307.716842230691 C 857.9031479817359,1305.116842230691 872.8031479817358,1292.816842230691 880.303147981736,1286.016842230691 C 908.1031479817359,1260.816842230691 930.503147981736,1233.816842230691 950.1031479817359,1202.316842230691 C 956.003147981736,1192.716842230691 970.6031479817359,1164.416842230691 971.9031479817359,1159.816842230691 C 972.303147981736,1158.416842230691 973.0031479817358,1156.816842230691 973.4031479817359,1156.316842230691 C 974.2031479817358,1155.216842230691 982.4031479817359,1133.616842230691 982.4031479817359,1132.616842230691 C 982.4031479817359,1132.216842230691 982.803147981736,1130.916842230691 983.303147981736,1129.616842230691 C 983.803147981736,1128.316842230691 984.303147981736,1126.816842230691 984.4031479817359,1126.316842230691 C 984.5031479817358,1125.716842230691 985.1031479817359,1124.216842230691 985.6031479817359,1122.816842230691 C 987.2031479817358,1118.616842230691 994.503147981736,1089.616842230691 995.4031479817359,1083.816842230691 C 995.9031479817359,1080.816842230691 996.9031479817359,1074.216842230691 997.803147981736,1069.316842230691 C 998.6031479817359,1064.316842230691 999.6031479817359,1058.716842230691 999.9031479817359,1056.816842230691 C 1003.803147981736,1033.116842230691 1003.803147981736,963.916842230691 999.9031479817359,944.3168422306911 C 999.1031479817359,940.4168422306911 998.2031479817358,935.0168422306912 997.9031479817359,932.3168422306911 C 997.5031479817358,929.5168422306912 996.4031479817359,923.5168422306912 995.303147981736,918.8168422306911 C 994.303147981736,914.1168422306911 992.9031479817359,908.0168422306912 992.303147981736,905.3168422306911 C 990.1031479817359,895.1168422306911 982.6031479817359,871.9168422306911 979.803147981736,866.6168422306911 C 979.003147981736,865.2168422306911 978.4031479817359,863.516842230691 978.4031479817359,862.9168422306911 C 978.4031479817359,861.9168422306911 967.0031479817358,838.5168422306912 962.303147981736,829.8168422306911 C 956.303147981736,818.8168422306911 940.303147981736,796.2168422306911 930.2031479817359,784.3168422306911 C 922.403147981736,775.2168422306911 903.0031479817359,756.4168422306911 894.2031479817359,749.3168422306911 C 889.303147981736,745.4168422306911 885.403147981736,742.0168422306912 885.4031479817359,741.516842230691 C 885.4031479817359,741.1168422306911 884.9031479817359,740.816842230691 884.303147981736,740.8168422306911 C 883.7031479817359,740.8168422306911 880.003147981736,738.4168422306911 876.1031479817359,735.416842230691 C 869.1031479817359,730.216842230691 854.303147981736,720.416842230691 847.303147981736,716.416842230691 C 831.903147981736,707.516842230691 824.303147981736,703.316842230691 820.9031479817359,701.6168422306911 C 818.7031479817358,700.6168422306911 816.0031479817359,699.2168422306911 814.9031479817359,698.6168422306911 C 813.8031479817358,698.016842230691 812.2031479817358,697.1168422306911 811.4031479817359,696.7168422306911 C 810.0031479817359,695.9168422306911 783.9031479817359,684.2168422306911 773.4031479817359,679.6168422306911 C 770.9031479817359,678.516842230691 767.5031479817359,677.016842230691 765.7031479817359,676.2168422306911 C 764.0031479817359,675.4168422306911 762.303147981736,674.8168422306911 761.9031479817359,674.8168422306911 C 761.5031479817359,674.8168422306911 754.6031479817359,672.3168422306911 746.5031479817359,669.3168422306911 C 738.5031479817359,666.4168422306911 727.4031479817359,662.5168422306912 721.9031479817359,660.8168422306911 C 716.4031479817359,659.1168422306911 711.1031479817359,657.3168422306911 710.2031479817359,656.8168422306911 C 709.2031479817359,656.2168422306911 707.6031479817359,655.8168422306911 706.6031479817359,655.8168422306911 C 705.6031479817359,655.8168422306911 704.4031479817359,655.5168422306912 704.0031479817359,655.1168422306911 C 703.7031479817359,654.7168422306911 700.6031479817359,653.7168422306911 697.1031479817359,652.7168422306911 C 693.7031479817359,651.8168422306911 683.7031479817359,649.016842230691 674.9031479817359,646.516842230691 C 655.0031479817359,640.916842230691 610.6031479817359,630.016842230691 597.4031479817359,627.516842230691 C 594.8031479817358,627.016842230691 577.0031479817359,623.1168422306911 565.4031479817359,620.516842230691 C 561.8031479817358,619.6168422306911 553.3031479817358,617.816842230691 546.4031479817359,616.416842230691 C 539.5031479817359,614.916842230691 531.2031479817358,613.1168422306911 527.9031479817359,612.3168422306911 C 524.6031479817359,611.5168422306912 516.5031479817359,609.7168422306911 509.90314798173586,608.3168422306911 C 495.2031479817358,605.1168422306911 492.5031479817359,604.5168422306912 480.40314798173586,601.7168422306911 C 475.2031479817358,600.6168422306911 466.0031479817359,598.6168422306911 459.90314798173586,597.3168422306911 C 392.1031479817359,582.8168422306911 338.5031479817359,564.4168422306911 299.40314798173586,542.016842230691 C 292.80314798173583,538.2168422306911 283.0031479817359,531.6168422306911 282.6031479817359,530.6168422306911 C 282.40314798173597,530.2168422306911 281.80314798173595,529.8168422306911 281.30314798173595,529.8168422306911 C 276.80314798173595,529.8168422306911 246.2031479817359,502.31684223069107 237.40314798173588,490.416842230691 C 235.5031479817359,487.81684223069095 232.7031479817359,484.21684223069093 231.30314798173592,482.516842230691 C 228.7031479817359,479.31684223069095 224.30314798173592,472.81684223069095 220.80314798173592,467.31684223069107 C 213.40314798173594,455.5168422306911 204.40314798173594,431.616842230691 200.5031479817359,413.31684223069107 C 194.60314798173593,386.416842230691 196.2031479817359,346.416842230691 204.0031479817359,319.81684223069107 C 209.5031479817359,301.21684223069116 219.90314798173588,278.81684223069107 227.80314798173592,268.31684223069107 C 228.7031479817359,267.21684223069116 231.5031479817359,263.416842230691 234.10314798173587,259.81684223069107 C 241.00314798173585,250.31684223069107 265.40314798173586,226.31684223069107 276.90314798173586,217.61684223069102 C 296.1031479817359,203.21684223069093 316.40314798173586,192.0168422306911 342.40314798173586,181.51684223069088 C 352.40314798173586,177.41684223069097 367.30314798173583,172.31684223069084 372.90314798173586,170.91684223069097 C 375.1031479817359,170.41684223069097 381.2031479817359,168.81684223069107 386.40314798173586,167.31684223069107 C 423.0031479817359,157.31684223069107 473.1031479817359,152.41684223069097 516.6031479817359,154.61684223069102 C 541.2031479817359,155.81684223069107 571.803147981736,159.31684223069107 586.9031479817359,162.71684223069093 C 610.5031479817359,167.91684223069097 630.3031479817358,173.71684223069093 639.1031479817359,177.81684223069107 C 641.5031479817359,178.91684223069097 643.803147981736,179.81684223069107 644.303147981736,179.81684223069107 C 646.303147981736,179.81684223069107 674.7031479817359,193.41684223069097 682.4031479817359,198.0168422306911 C 723.8031479817358,222.9168422306912 755.1031479817359,255.0168422306911 779.1031479817359,297.31684223069107 C 785.0031479817359,307.71684223069116 797.4031479817359,334.81684223069107 799.9031479817359,342.81684223069107 C 800.8031479817358,345.81684223069107 802.2031479817358,349.71684223069116 803.0031479817359,351.5168422306911 C 803.8031479817358,353.21684223069116 804.4031479817359,354.9168422306912 804.4031479817359,355.31684223069107 C 804.4031479817359,355.81684223069107 806.4031479817359,360.31684223069107 808.9031479817359,365.616842230691 C 825.0031479817359,399.116842230691 847.9031479817359,415.616842230691 882.0031479817359,418.416842230691 C 898.3031479817358,419.71684223069093 920.1031479817359,414.916842230691 932.2031479817359,407.31684223069107 C 948.903147981736,396.916842230691 960.1031479817359,381.81684223069107 965.003147981736,363.21684223069093 C 967.4031479817361,353.81684223069084 967.503147981736,324.5168422306909 965.003147981736,310.81684223069107 C 960.203147981736,283.21684223069116 943.703147981736,240.5168422306911 926.4031479817359,210.31684223069107 C 919.3031479817358,198.0168422306911 905.4031479817359,177.31684223069107 899.7031479817359,170.71684223069093 C 897.2031479817359,167.71684223069093 893.303147981736,162.91684223069097 891.2031479817359,160.01684223069088 C 886.0031479817359,153.01684223069088 855.303147981736,122.31684223069084 844.4031479817359,113.21684223069093 C 833.9031479817359,104.41684223069097 806.7031479817358,83.91684223069097 804.5031479817359,83.01684223069088 C 803.7031479817359,82.71684223069093 797.1031479817359,78.71684223069093 789.9031479817359,74.21684223069093 C 782.7031479817358,69.71684223069093 774.2031479817358,64.71684223069093 770.9031479817359,63.01684223069089 C 762.9031479817359,59.1168422306908 752.3031479817358,53.716842230690936 750.4031479817359,52.61684223069103 C 749.6031479817359,52.216842230690936 748.2031479817358,51.51684223069112 747.4031479817359,51.216842230690936 C 746.6031479817359,50.816842230690845 743.0031479817359,49.216842230690936 739.4031479817359,47.51684223069089 C 706.9031479817359,32.316842230690845 662.6031479817359,18.416842230690982 620.9031479817359,10.416842230690982 C 609.1031479817359,8.116842230691027 601.3031479817358,6.816842230691073 579.9031479817359,3.8168422306910728 C 563.1031479817359,1.4168422306909818 528.7031479817358,-0.18315776930892724 496.90314798173586,0.016842230690890858 C 478.80314798173583,0.11684223069079991 461.40314798173586,0.3168422306908454 458.40314798173586,0.5168422306908909" fill="url(#sg)"/></g></g>
<g transform="translate(333.53,270.00)"><path d="M 89.28571428571429,2.884615384615385 Q 67.17032967032968,2.884615384615385 49.03846153846154,-2.0604395604395607 Q 30.906593406593405,-7.0054945054945055 13.324175824175825,-19.230769230769234 L 13.324175824175825,-67.58241758241759 L 44.36813186813187,-67.58241758241759 L 48.62637362637363,-39.14835164835165 Q 54.80769230769231,-33.92857142857143 65.65934065934067,-30.700549450549453 Q 76.51098901098902,-27.472527472527474 89.28571428571429,-27.472527472527474 Q 100.13736263736264,-27.472527472527474 107.62362637362638,-30.494505494505496 Q 115.10989010989012,-33.51648351648352 119.02472527472528,-39.079670329670336 Q 122.93956043956045,-44.64285714285715 122.93956043956045,-52.197802197802204 Q 122.93956043956045,-59.34065934065935 119.4368131868132,-64.90384615384616 Q 115.93406593406594,-70.46703296703298 107.89835164835166,-75.06868131868133 Q 99.86263736263737,-79.67032967032968 86.12637362637363,-83.92857142857143 Q 62.36263736263737,-90.93406593406594 46.77197802197803,-99.2445054945055 Q 31.181318681318686,-107.55494505494507 23.42032967032967,-119.16208791208793 Q 15.65934065934066,-130.76923076923077 15.65934065934066,-147.11538461538464 Q 15.65934065934066,-163.32417582417585 24.65659340659341,-175.7554945054945 Q 33.65384615384616,-188.1868131868132 49.587912087912095,-195.32967032967034 Q 65.52197802197803,-202.47252747252747 86.4010989010989,-202.74725274725276 Q 109.47802197802199,-203.02197802197804 127.26648351648353,-197.25274725274727 Q 145.05494505494508,-191.4835164835165 157.967032967033,-181.1813186813187 L 157.967032967033,-136.12637362637363 L 127.8846153846154,-136.12637362637363 L 122.66483516483518,-163.5989010989011 Q 117.44505494505496,-166.8956043956044 108.58516483516485,-169.36813186813188 Q 99.72527472527473,-171.84065934065936 88.46153846153847,-171.84065934065936 Q 78.84615384615385,-171.84065934065936 71.49725274725276,-168.95604395604397 Q 64.14835164835166,-166.07142857142858 59.8901098901099,-160.5769230769231 Q 55.63186813186814,-155.0824175824176 55.63186813186814,-147.25274725274727 Q 55.63186813186814,-140.52197802197804 59.34065934065934,-135.50824175824178 Q 63.049450549450555,-130.49450549450552 71.77197802197803,-126.0302197802198 Q 80.4945054945055,-121.56593406593409 95.87912087912089,-116.4835164835165 Q 128.9835164835165,-107.2802197802198 146.08516483516485,-92.17032967032968 Q 163.1868131868132,-77.06043956043956 163.1868131868132,-52.472527472527474 Q 163.1868131868132,-35.43956043956044 153.9835164835165,-23.00824175824176 Q 144.7802197802198,-10.576923076923077 128.15934065934067,-3.8461538461538467 Q 111.53846153846155,2.884615384615385 89.28571428571429,2.884615384615385 M 233.3791208791209,0.0 L 233.3791208791209,-24.03846153846154 L 254.80769230769232,-28.15934065934066 L 254.80769230769232,-68.54395604395604 L 195.467032967033,-173.0769230769231 L 176.23626373626377,-175.82417582417582 L 176.23626373626377,-200.00000000000003 L 256.0439560439561,-200.00000000000003 L 256.0439560439561,-175.82417582417582 L 239.69780219780222,-173.489010989011 L 272.93956043956047,-109.61538461538463 L 275.9615384615385,-103.15934065934067 L 276.78571428571433,-103.2967032967033 L 279.8076923076924,-109.34065934065934 L 316.7582417582418,-173.489010989011 L 294.7802197802198,-175.82417582417582 L 294.7802197802198,-200.00000000000003 L 373.0769230769231,-200.00000000000003 L 373.0769230769231,-175.82417582417582 L 353.2967032967033,-173.0769230769231 L 294.7802197802198,-71.70329670329672 L 294.7802197802198,-28.15934065934066 L 316.20879120879124,-24.03846153846154 L 316.20879120879124,0.0 L 233.3791208791209,0.0 M 386.12637362637366,0.0 L 386.12637362637366,-24.03846153846154 L 407.4175824175825,-28.15934065934066 L 407.4175824175825,-171.70329670329673 L 386.12637362637366,-175.82417582417582 L 386.12637362637366,-200.00000000000003 L 407.4175824175825,-200.00000000000003 L 448.07692307692315,-200.00000000000003 L 535.1648351648353,-61.26373626373627 L 535.989010989011,-61.401098901098905 L 535.989010989011,-171.70329670329673 L 510.4395604395605,-175.82417582417582 L 510.4395604395605,-200.00000000000003 L 571.8406593406594,-200.00000000000003 L 593.2692307692308,-200.00000000000003 L 593.2692307692308,-175.82417582417582 L 571.8406593406594,-171.70329670329673 L 571.8406593406594,0.0 L 533.1043956043957,0.0 L 444.09340659340666,-137.36263736263737 L 443.26923076923083,-137.22527472527474 L 443.26923076923083,-28.15934065934066 L 468.956043956044,-24.03846153846154 L 468.956043956044,0.0 L 386.12637362637366,0.0 M 606.456043956044,0.0 L 606.456043956044,-24.03846153846154 L 627.7472527472528,-28.15934065934066 L 627.7472527472528,-171.70329670329673 L 606.456043956044,-175.82417582417582 L 606.456043956044,-200.00000000000003 L 761.6758241758242,-200.00000000000003 L 761.6758241758242,-146.01648351648353 L 730.9065934065934,-146.01648351648353 L 729.1208791208792,-169.0934065934066 L 667.8571428571429,-169.0934065934066 L 667.8571428571429,-118.81868131868133 L 735.5769230769231,-118.81868131868133 L 735.5769230769231,-87.91208791208791 L 667.8571428571429,-87.91208791208791 L 667.8571428571429,-30.769230769230774 L 732.4175824175825,-30.769230769230774 L 734.2032967032967,-54.67032967032967 L 764.6978021978023,-54.67032967032967 L 764.6978021978023,0.0 L 606.456043956044,0.0 M 786.1263736263737,0.0 L 786.1263736263737,-24.03846153846154 L 807.4175824175825,-28.15934065934066 L 807.4175824175825,-171.70329670329673 L 786.1263736263737,-175.82417582417582 L 786.1263736263737,-200.00000000000003 L 880.9065934065934,-200.00000000000003 Q 903.9835164835165,-200.00000000000003 920.467032967033,-192.85714285714286 Q 936.9505494505495,-185.71428571428572 945.8104395604396,-172.3901098901099 Q 954.6703296703297,-159.06593406593407 954.6703296703297,-140.3846153846154 Q 954.6703296703297,-122.80219780219781 945.8791208791209,-108.92857142857144 Q 937.0879120879122,-95.05494505494507 921.4285714285716,-87.0879120879121 Q 905.7692307692308,-79.12087912087914 885.3021978021978,-78.9835164835165 L 847.5274725274726,-78.9835164835165 L 847.5274725274726,-28.15934065934066 L 868.956043956044,-24.03846153846154 L 868.956043956044,0.0 L 786.1263736263737,0.0 M 914.835164835165,0.0 L 881.1813186813188,-86.4010989010989 L 917.3076923076924,-95.32967032967034 L 946.4285714285716,-28.021978021978025 L 963.4615384615386,-24.03846153846154 L 963.4615384615386,0.0 L 914.835164835165,0.0 M 847.5274725274726,-109.8901098901099 L 880.2197802197803,-109.8901098901099 Q 897.5274725274726,-109.8901098901099 906.1126373626374,-117.23901098901099 Q 914.6978021978023,-124.58791208791209 914.6978021978023,-138.5989010989011 Q 914.6978021978023,-152.47252747252747 906.1813186813188,-160.78296703296704 Q 897.6648351648353,-169.0934065934066 880.9065934065934,-169.0934065934066 L 847.5274725274726,-169.0934065934066 L 847.5274725274726,-109.8901098901099 M 1072.5274725274726,2.884615384615385 Q 1042.7197802197802,2.884615384615385 1021.7032967032967,-9.478021978021978 Q 1000.6868131868132,-21.840659340659343 989.4917582417582,-43.81868131868132 Q 978.2967032967033,-65.7967032967033 978.2967032967033,-94.7802197802198 L 978.2967032967033,-101.64835164835166 Q 978.2967032967033,-131.5934065934066 989.423076923077,-154.3956043956044 Q 1000.5494505494506,-177.19780219780222 1020.9478021978023,-190.04120879120882 Q 1041.3461538461538,-202.88461538461542 1069.2307692307693,-202.88461538461542 Q 1090.7967032967033,-202.88461538461542 1109.7527472527472,-196.97802197802199 Q 1128.7087912087914,-191.07142857142858 1142.7197802197802,-179.25824175824178 L 1142.7197802197802,-134.8901098901099 L 1113.0494505494505,-134.8901098901099 L 1107.4175824175825,-161.6758241758242 Q 1102.0604395604396,-166.34615384615387 1092.9945054945056,-169.1620879120879 Q 1083.9285714285716,-171.97802197802199 1072.2527472527472,-171.97802197802199 Q 1055.4945054945056,-171.97802197802199 1043.3379120879122,-163.1868131868132 Q 1031.1813186813188,-154.3956043956044 1024.7252747252749,-138.5989010989011 Q 1018.2692307692308,-122.80219780219781 1018.2692307692308,-101.92307692307693 L 1018.2692307692308,-94.7802197802198 Q 1018.2692307692308,-74.45054945054946 1024.6565934065934,-59.409340659340664 Q 1031.043956043956,-44.36813186813187 1043.4065934065934,-36.12637362637363 Q 1055.7692307692307,-27.884615384615387 1073.7637362637363,-27.884615384615387 Q 1084.3406593406594,-27.884615384615387 1093.2005494505495,-29.876373626373628 Q 1102.0604395604396,-31.86813186813187 1107.8296703296703,-34.752747252747255 L 1107.8296703296703,-68.68131868131869 L 1079.2582417582419,-70.87912087912089 L 1079.2582417582419,-99.03846153846155 L 1148.076923076923,-99.03846153846155 L 1148.076923076923,-18.131868131868135 Q 1134.7527472527472,-8.653846153846157 1116.0027472527472,-2.884615384615385 Q 1097.2527472527472,2.884615384615385 1072.5274725274726,2.884615384615385 M 1222.5274725274726,0.0 L 1222.5274725274726,-24.03846153846154 L 1243.956043956044,-28.15934065934066 L 1243.956043956044,-68.54395604395604 L 1184.6153846153845,-173.0769230769231 L 1165.3846153846152,-175.82417582417582 L 1165.3846153846152,-200.00000000000003 L 1245.1923076923076,-200.00000000000003 L 1245.1923076923076,-175.82417582417582 L 1228.8461538461538,-173.489010989011 L 1262.0879120879122,-109.61538461538463 L 1265.10989010989,-103.15934065934067 L 1265.934065934066,-103.2967032967033 L 1268.956043956044,-109.34065934065934 L 1305.9065934065934,-173.489010989011 L 1283.9285714285713,-175.82417582417582 L 1283.9285714285713,-200.00000000000003 L 1362.2252747252746,-200.00000000000003 L 1362.2252747252746,-175.82417582417582 L 1342.4450549450548,-173.0769230769231 L 1283.9285714285713,-71.70329670329672 L 1283.9285714285713,-28.15934065934066 L 1305.357142857143,-24.03846153846154 L 1305.357142857143,0.0 L 1222.5274725274726,0.0" fill="#000000"/></g>
<g transform="translate(333.53,362.00)"><path d="M 24.23076923076923,0.6923076923076923 Q 17.307692307692307,0.6923076923076923 12.32967032967033,-2.3241758241758244 Q 7.351648351648352,-5.340659340659341 4.681318681318682,-10.697802197802199 Q 2.010989010989011,-16.05494505494506 2.010989010989011,-23.10989010989011 L 2.010989010989011,-24.395604395604398 Q 2.010989010989011,-31.615384615384617 4.664835164835165,-37.07142857142857 Q 7.318681318681319,-42.527472527472526 12.098901098901099,-45.60989010989011 Q 16.87912087912088,-48.69230769230769 23.24175824175824,-48.69230769230769 Q 28.582417582417584,-48.69230769230769 32.86813186813187,-47.324175824175825 Q 37.15384615384615,-45.956043956043956 40.252747252747255,-43.417582417582416 L 40.252747252747255,-33.16483516483517 L 33.89010989010989,-33.16483516483517 L 32.83516483516484,-39.824175824175825 Q 31.38461538461539,-40.91208791208791 29.142857142857142,-41.53846153846154 Q 26.9010989010989,-42.16483516483517 23.934065934065934,-42.16483516483517 Q 19.87912087912088,-42.16483516483517 16.796703296703296,-39.93956043956044 Q 13.714285714285714,-37.714285714285715 12.016483516483516,-33.74175824175824 Q 10.31868131868132,-29.769230769230766 10.31868131868132,-24.461538461538463 L 10.31868131868132,-23.10989010989011 Q 10.31868131868132,-17.86813186813187 11.95054945054945,-13.978021978021978 Q 13.582417582417582,-10.087912087912088 16.73076923076923,-7.945054945054945 Q 19.87912087912088,-5.802197802197803 24.395604395604398,-5.802197802197802 Q 27.263736263736266,-5.802197802197802 29.456043956043956,-6.32967032967033 Q 31.64835164835165,-6.857142857142858 33.1978021978022,-7.648351648351649 L 33.1978021978022,-17.10989010989011 L 25.351648351648354,-17.571428571428573 L 25.351648351648354,-23.472527472527474 L 41.505494505494504,-23.472527472527474 L 41.505494505494504,-4.417582417582418 Q 38.76923076923077,-2.274725274725275 34.532967032967036,-0.7912087912087913 Q 30.2967032967033,0.6923076923076923 24.230769230769234,0.6923076923076923 M 81.1965811965812,0.0 L 81.1965811965812,-5.076923076923077 L 86.43833943833945,-6.065934065934066 L 86.43833943833945,-41.901098901098905 L 81.1965811965812,-42.89010989010989 L 81.1965811965812,-48.0 L 86.43833943833945,-48.0 L 94.74603174603176,-48.0 L 100.3833943833944,-48.0 L 100.3833943833944,-42.89010989010989 L 94.74603174603176,-41.901098901098905 L 94.74603174603176,-6.362637362637363 L 109.74603174603176,-6.362637362637363 L 110.30647130647132,-13.615384615384615 L 116.66910866910868,-13.615384615384615 L 116.66910866910868,0.0 L 81.1965811965812,0.0 M 176.00854700854703,0.6923076923076923 Q 171.22832722832726,0.6923076923076923 167.3711843711844,-1.1043956043956045 Q 163.51404151404154,-2.9010989010989015 160.76129426129427,-6.164835164835165 Q 158.00854700854703,-9.428571428571429 156.52503052503053,-13.87912087912088 Q 155.04151404151406,-18.32967032967033 155.04151404151406,-23.63736263736264 L 155.04151404151406,-24.362637362637365 Q 155.04151404151406,-29.63736263736264 156.52503052503053,-34.08791208791209 Q 158.00854700854703,-38.53846153846154 160.76129426129427,-41.81868131868132 Q 163.51404151404154,-45.0989010989011 167.3711843711844,-46.895604395604394 Q 171.22832722832726,-48.69230769230769 175.97557997558,-48.69230769230769 Q 180.8876678876679,-48.69230769230769 184.7777777777778,-46.895604395604394 Q 188.66788766788767,-45.098901098901095 191.40415140415143,-41.81868131868132 Q 194.14041514041514,-38.53846153846154 195.5909645909646,-34.08791208791209 Q 197.04151404151406,-29.637362637362635 197.04151404151406,-24.362637362637365 L 197.04151404151406,-23.63736263736264 Q 197.04151404151406,-18.329670329670332 195.5909645909646,-13.87912087912088 Q 194.14041514041514,-9.428571428571429 191.40415140415143,-6.164835164835165 Q 188.66788766788767,-2.9010989010989015 184.7777777777778,-1.1043956043956045 Q 180.8876678876679,0.6923076923076923 176.00854700854703,0.6923076923076923 M 176.00854700854703,-5.9010989010989015 Q 180.36019536019538,-5.9010989010989015 183.1788766788767,-8.126373626373626 Q 185.99755799755803,-10.35164835164835 187.3656898656899,-14.340659340659341 Q 188.73382173382174,-18.32967032967033 188.73382173382174,-23.63736263736264 L 188.73382173382174,-24.42857142857143 Q 188.73382173382174,-29.67032967032967 187.34920634920638,-33.62637362637363 Q 185.96459096459097,-37.582417582417584 183.14590964590965,-39.824175824175825 Q 180.32722832722834,-42.065934065934066 175.97557997558,-42.065934065934066 Q 171.82173382173383,-42.065934065934066 169.01953601953605,-39.824175824175825 Q 166.21733821733824,-37.582417582417584 164.79975579975581,-33.62637362637363 Q 163.3821733821734,-29.67032967032967 163.3821733821734,-24.42857142857143 L 163.3821733821734,-23.63736263736264 Q 163.3821733821734,-18.362637362637365 164.79975579975581,-14.357142857142858 Q 166.21733821733824,-10.351648351648352 169.03601953601955,-8.126373626373626 Q 171.85470085470087,-5.901098901098901 176.00854700854703,-5.901098901098901 M 235.4798534798535,0.0 L 235.4798534798535,-5.076923076923077 L 240.72161172161174,-6.065934065934066 L 240.72161172161174,-41.901098901098905 L 235.4798534798535,-42.89010989010989 L 235.4798534798535,-48.0 L 240.72161172161174,-48.0 L 256.54578754578756,-48.0 Q 264.62271062271066,-48.0 269.15567765567766,-44.71978021978022 Q 273.6886446886447,-41.43956043956044 273.6886446886447,-34.91208791208791 Q 273.6886446886447,-31.64835164835165 271.8095238095238,-29.060439560439562 Q 269.9304029304029,-26.472527472527474 266.6007326007326,-25.21978021978022 Q 269.50183150183153,-24.59340659340659 271.4798534798535,-22.945054945054945 Q 273.45787545787545,-21.296703296703296 274.496336996337,-18.93956043956044 Q 275.53479853479854,-16.582417582417584 275.53479853479854,-13.780219780219781 Q 275.53479853479854,-7.021978021978023 271.1007326007326,-3.510989010989011 Q 266.6666666666667,0.0 258.75457875457874,0.0 L 235.4798534798535,0.0 M 249.02930402930403,-6.395604395604396 L 258.75457875457874,-6.395604395604396 Q 262.84249084249086,-6.395604395604396 265.03479853479854,-8.291208791208792 Q 267.2271062271062,-10.186813186813188 267.2271062271062,-13.780219780219781 Q 267.2271062271062,-17.571428571428573 265.3644688644689,-19.681318681318682 Q 263.50183150183153,-21.791208791208792 259.57875457875457,-21.791208791208792 L 249.02930402930403,-21.791208791208792 L 249.02930402930403,-6.395604395604396 M 249.02930402930403,-27.75824175824176 L 257.46886446886447,-27.75824175824176 Q 261.16117216117215,-27.75824175824176 263.2710622710623,-29.53846153846154 Q 265.3809523809524,-31.31868131868132 265.3809523809524,-34.51648351648352 Q 265.3809523809524,-38.10989010989011 263.13919413919416,-39.84065934065934 Q 260.8974358974359,-41.57142857142858 256.54578754578756,-41.57142857142857 L 249.02930402930403,-41.57142857142857 L 249.02930402930403,-27.758241758241756 M 313.1819291819292,0.0 L 313.1819291819292,-5.076923076923077 L 316.6764346764347,-5.571428571428571 L 332.5665445665446,-48.0 L 340.64346764346766,-48.0 L 356.3357753357754,-5.571428571428571 L 359.83028083028086,-5.076923076923077 L 359.83028083028086,0.0 L 344.5665445665446,0.0 L 344.5665445665446,-5.076923076923077 L 347.99511599511607,-5.7032967032967035 L 345.4566544566545,-13.252747252747254 L 327.5885225885226,-13.252747252747254 L 324.98412698412704,-5.7032967032967035 L 328.4456654456655,-5.076923076923077 L 328.4456654456655,0.0 L 313.1819291819292,0.0 M 329.7643467643468,-19.615384615384617 L 343.31379731379735,-19.615384615384617 L 337.0830280830281,-37.38461538461539 L 336.6544566544567,-38.67032967032967 L 336.4566544566545,-38.67032967032967 L 335.99511599511607,-37.31868131868132 L 329.7643467643468,-19.615384615384617 M 397.8730158730159,0.0 L 397.8730158730159,-5.076923076923077 L 403.11477411477415,-6.065934065934066 L 403.11477411477415,-41.901098901098905 L 397.8730158730159,-42.89010989010989 L 397.8730158730159,-48.0 L 403.11477411477415,-48.0 L 411.42246642246647,-48.0 L 417.0598290598291,-48.0 L 417.0598290598291,-42.89010989010989 L 411.42246642246647,-41.901098901098905 L 411.42246642246647,-6.362637362637363 L 426.42246642246647,-6.362637362637363 L 426.982905982906,-13.615384615384615 L 433.3455433455434,-13.615384615384615 L 433.3455433455434,0.0 L 397.8730158730159,0.0 M 522.4529914529916,0.0 L 522.4529914529916,-5.076923076923077 L 527.6947496947497,-6.065934065934066 L 527.6947496947497,-41.901098901098905 L 522.4529914529916,-42.89010989010989 L 522.4529914529916,-48.0 L 541.2112332112333,-48.0 L 541.2112332112333,-42.89010989010989 L 536.0024420024421,-41.901098901098905 L 536.0024420024421,-6.065934065934066 L 541.2112332112333,-5.076923076923077 L 541.2112332112333,0.0 L 522.4529914529915,0.0 M 591.1221001221003,0.0 L 591.1221001221003,-5.076923076923077 L 596.3638583638585,-6.065934065934066 L 596.3638583638585,-41.637362637362635 L 586.7045177045178,-41.637362637362635 L 585.979242979243,-35.505494505494504 L 579.7484737484739,-35.505494505494504 L 579.7484737484739,-48.0 L 621.3199023199024,-48.0 L 621.3199023199024,-35.505494505494504 L 615.0561660561661,-35.505494505494504 L 614.3308913308914,-41.637362637362635 L 604.6715506715508,-41.637362637362635 L 604.6715506715508,-6.065934065934066 L 609.913308913309,-5.076923076923077 L 609.913308913309,0.0 L 591.1221001221003,0.0 M 729.2515262515263,0.6923076923076923 Q 724.3394383394384,0.6923076923076923 720.1196581196582,-0.5274725274725275 Q 715.899877899878,-1.7472527472527473 711.910866910867,-4.582417582417582 L 711.910866910867,-15.626373626373626 L 718.3394383394384,-15.626373626373626 L 719.3943833943835,-8.472527472527473 Q 721.1416361416362,-7.21978021978022 723.6965811965813,-6.461538461538462 Q 726.2515262515263,-5.7032967032967035 729.2515262515263,-5.7032967032967035 Q 732.1855921855922,-5.7032967032967035 734.1800976800978,-6.543956043956044 Q 736.1746031746032,-7.384615384615384 737.2295482295483,-8.901098901098901 Q 738.2844932844934,-10.417582417582418 738.2844932844934,-12.494505494505495 Q 738.2844932844934,-14.406593406593407 737.3614163614164,-15.89010989010989 Q 736.4383394383395,-17.373626373626372 734.2954822954823,-18.543956043956044 Q 732.1526251526252,-19.714285714285715 728.4932844932846,-20.703296703296704 Q 723.1196581196582,-22.153846153846153 719.5097680097681,-24.13186813186813 Q 715.899877899878,-26.10989010989011 714.0702075702076,-28.87912087912088 Q 712.2405372405373,-31.64835164835165 712.2405372405373,-35.40659340659341 Q 712.2405372405373,-39.26373626373626 714.3339438339439,-42.23076923076923 Q 716.4273504273505,-45.197802197802204 720.1526251526252,-46.91208791208791 Q 723.8778998779,-48.62637362637363 728.7570207570208,-48.659340659340664 Q 734.0976800976802,-48.72527472527473 738.2020757020757,-47.27472527472528 Q 742.3064713064714,-45.824175824175825 745.1416361416362,-43.48351648351648 L 745.1416361416362,-33.16483516483517 L 738.8449328449329,-33.16483516483517 L 737.6581196581197,-39.89010989010989 Q 736.3064713064714,-40.84615384615385 734.1471306471307,-41.52197802197802 Q 731.98778998779,-42.1978021978022 729.0537240537241,-42.1978021978022 Q 726.5482295482296,-42.1978021978022 724.6361416361417,-41.37362637362637 Q 722.7240537240538,-40.54945054945055 721.6361416361417,-39.04945054945055 Q 720.5482295482296,-37.54945054945055 720.5482295482296,-35.472527472527474 Q 720.5482295482296,-33.659340659340664 721.5042735042736,-32.30769230769231 Q 722.4603174603175,-30.956043956043956 724.7020757020757,-29.851648351648354 Q 726.943833943834,-28.747252747252748 730.7680097680098,-27.626373626373628 Q 738.5811965811967,-25.54945054945055 742.6031746031747,-21.89010989010989 Q 746.6251526251526,-18.23076923076923 746.6251526251526,-12.56043956043956 Q 746.6251526251526,-8.571428571428571 744.465811965812,-5.5879120879120885 Q 742.3064713064714,-2.604395604395605 738.399877899878,-0.9560439560439561 Q 734.4932844932846,0.6923076923076924 729.2515262515263,0.6923076923076924 M 806.2942612942613,0.6923076923076923 Q 801.5140415140417,0.6923076923076923 797.6568986568988,-1.1043956043956045 Q 793.7997557997559,-2.9010989010989015 791.0470085470087,-6.164835164835165 Q 788.2942612942614,-9.428571428571429 786.810744810745,-13.87912087912088 Q 785.3272283272285,-18.32967032967033 785.3272283272285,-23.63736263736264 L 785.3272283272285,-24.362637362637365 Q 785.3272283272285,-29.63736263736264 786.810744810745,-34.08791208791209 Q 788.2942612942614,-38.53846153846154 791.0470085470087,-41.81868131868132 Q 793.7997557997559,-45.0989010989011 797.6568986568988,-46.895604395604394 Q 801.5140415140417,-48.69230769230769 806.2612942612943,-48.69230769230769 Q 811.1733821733823,-48.69230769230769 815.0634920634922,-46.895604395604394 Q 818.9536019536021,-45.098901098901095 821.6898656898658,-41.81868131868132 Q 824.4261294261295,-38.53846153846154 825.876678876679,-34.08791208791209 Q 827.3272283272285,-29.637362637362635 827.3272283272285,-24.362637362637365 L 827.3272283272285,-23.63736263736264 Q 827.3272283272285,-18.329670329670332 825.876678876679,-13.87912087912088 Q 824.4261294261295,-9.428571428571429 821.6898656898658,-6.164835164835165 Q 818.9536019536021,-2.9010989010989015 815.0634920634922,-1.1043956043956045 Q 811.1733821733823,0.6923076923076923 806.2942612942613,0.6923076923076923 M 806.2942612942613,-5.9010989010989015 Q 810.6459096459098,-5.9010989010989015 813.464590964591,-8.126373626373626 Q 816.2832722832724,-10.35164835164835 817.6514041514042,-14.340659340659341 Q 819.0195360195361,-18.32967032967033 819.0195360195361,-23.63736263736264 L 819.0195360195361,-24.42857142857143 Q 819.0195360195361,-29.67032967032967 817.6349206349207,-33.62637362637363 Q 816.2503052503054,-37.582417582417584 813.431623931624,-39.824175824175825 Q 810.6129426129427,-42.065934065934066 806.2612942612943,-42.065934065934066 Q 802.1074481074482,-42.065934065934066 799.3052503052504,-39.824175824175825 Q 796.5030525030526,-37.582417582417584 795.0854700854702,-33.62637362637363 Q 793.6678876678877,-29.67032967032967 793.6678876678877,-24.42857142857143 L 793.6678876678877,-23.63736263736264 Q 793.6678876678877,-18.362637362637365 795.0854700854702,-14.357142857142858 Q 796.5030525030526,-10.351648351648352 799.3217338217339,-8.126373626373626 Q 802.1404151404153,-5.901098901098901 806.2942612942613,-5.901098901098901 M 865.7655677655679,0.0 L 865.7655677655679,-5.076923076923077 L 871.007326007326,-6.065934065934066 L 871.007326007326,-41.901098901098905 L 865.7655677655679,-42.89010989010989 L 865.7655677655679,-48.0 L 871.007326007326,-48.0 L 879.3150183150184,-48.0 L 884.952380952381,-48.0 L 884.952380952381,-42.89010989010989 L 879.3150183150184,-41.901098901098905 L 879.3150183150184,-6.362637362637363 L 894.3150183150184,-6.362637362637363 L 894.875457875458,-13.615384615384615 L 901.2380952380953,-13.615384615384615 L 901.2380952380953,0.0 L 865.7655677655678,0.0 M 962.6874236874238,0.6923076923076923 Q 957.3137973137974,0.6923076923076923 953.1599511599512,-1.2692307692307692 Q 949.006105006105,-3.230769230769231 946.6819291819293,-6.923076923076923 Q 944.3577533577534,-10.615384615384617 944.3577533577534,-15.857142857142858 L 944.3577533577534,-41.901098901098905 L 939.1159951159951,-42.89010989010989 L 939.1159951159951,-48.0 L 957.8742368742369,-48.0 L 957.8742368742369,-42.89010989010989 L 952.6324786324788,-41.901098901098905 L 952.6324786324788,-15.857142857142858 Q 952.6324786324788,-12.527472527472527 953.885225885226,-10.26923076923077 Q 955.1379731379732,-8.010989010989011 957.4126984126984,-6.8901098901098905 Q 959.6874236874238,-5.76923076923077 962.7203907203908,-5.769230769230769 Q 965.852258852259,-5.769230769230769 968.1434676434677,-6.8901098901098905 Q 970.4346764346765,-8.010989010989011 971.7039072039073,-10.252747252747254 Q 972.973137973138,-12.494505494505496 972.973137973138,-15.857142857142858 L 972.973137973138,-41.901098901098905 L 967.7313797313798,-42.89010989010989 L 967.7313797313798,-48.0 L 986.4896214896215,-48.0 L 986.4896214896215,-42.89010989010989 L 981.2808302808304,-41.901098901098905 L 981.2808302808304,-15.857142857142858 Q 981.2808302808304,-10.549450549450551 978.9566544566545,-6.857142857142858 Q 976.6324786324788,-3.164835164835165 972.4456654456656,-1.2362637362637363 Q 968.2588522588524,0.6923076923076923 962.6874236874238,0.6923076923076923 M 1035.905982905983,0.0 L 1035.905982905983,-5.076923076923077 L 1041.1477411477413,-6.065934065934066 L 1041.1477411477413,-41.637362637362635 L 1031.4884004884007,-41.637362637362635 L 1030.7631257631258,-35.505494505494504 L 1024.5323565323565,-35.505494505494504 L 1024.5323565323565,-48.0 L 1066.1037851037852,-48.0 L 1066.1037851037852,-35.505494505494504 L 1059.840048840049,-35.505494505494504 L 1059.1147741147743,-41.637362637362635 L 1049.4554334554334,-41.637362637362635 L 1049.4554334554334,-6.065934065934066 L 1054.6971916971918,-5.076923076923077 L 1054.6971916971918,0.0 L 1035.905982905983,0.0 M 1104.6410256410256,0.0 L 1104.6410256410256,-5.076923076923077 L 1109.882783882784,-6.065934065934066 L 1109.882783882784,-41.901098901098905 L 1104.6410256410256,-42.89010989010989 L 1104.6410256410256,-48.0 L 1123.3992673992675,-48.0 L 1123.3992673992675,-42.89010989010989 L 1118.1904761904761,-41.901098901098905 L 1118.1904761904761,-6.065934065934066 L 1123.3992673992675,-5.076923076923077 L 1123.3992673992675,0.0 L 1104.6410256410256,0.0 M 1182.903540903541,0.6923076923076923 Q 1178.1233211233211,0.6923076923076923 1174.2661782661783,-1.1043956043956045 Q 1170.4090354090356,-2.9010989010989015 1167.6562881562882,-6.164835164835165 Q 1164.903540903541,-9.428571428571429 1163.4200244200244,-13.87912087912088 Q 1161.936507936508,-18.32967032967033 1161.936507936508,-23.63736263736264 L 1161.936507936508,-24.362637362637365 Q 1161.936507936508,-29.63736263736264 1163.4200244200244,-34.08791208791209 Q 1164.903540903541,-38.53846153846154 1167.6562881562882,-41.81868131868132 Q 1170.4090354090356,-45.0989010989011 1174.2661782661783,-46.895604395604394 Q 1178.1233211233211,-48.69230769230769 1182.870573870574,-48.69230769230769 Q 1187.782661782662,-48.69230769230769 1191.6727716727717,-46.895604395604394 Q 1195.5628815628816,-45.098901098901095 1198.2991452991455,-41.81868131868132 Q 1201.0354090354092,-38.53846153846154 1202.4859584859587,-34.08791208791209 Q 1203.936507936508,-29.637362637362635 1203.936507936508,-24.362637362637365 L 1203.936507936508,-23.63736263736264 Q 1203.936507936508,-18.329670329670332 1202.4859584859587,-13.87912087912088 Q 1201.0354090354092,-9.428571428571429 1198.2991452991455,-6.164835164835165 Q 1195.5628815628816,-2.9010989010989015 1191.6727716727717,-1.1043956043956045 Q 1187.782661782662,0.6923076923076923 1182.903540903541,0.6923076923076923 M 1182.903540903541,-5.9010989010989015 Q 1187.2551892551894,-5.9010989010989015 1190.0738705738706,-8.126373626373626 Q 1192.892551892552,-10.35164835164835 1194.2606837606838,-14.340659340659341 Q 1195.6288156288158,-18.32967032967033 1195.6288156288158,-23.63736263736264 L 1195.6288156288158,-24.42857142857143 Q 1195.6288156288158,-29.67032967032967 1194.2442002442003,-33.62637362637363 Q 1192.8595848595849,-37.582417582417584 1190.0409035409036,-39.824175824175825 Q 1187.2222222222224,-42.065934065934066 1182.870573870574,-42.065934065934066 Q 1178.7167277167277,-42.065934065934066 1175.91452991453,-39.824175824175825 Q 1173.1123321123323,-37.582417582417584 1171.6947496947498,-33.62637362637363 Q 1170.2771672771673,-29.67032967032967 1170.2771672771673,-24.42857142857143 L 1170.2771672771673,-23.63736263736264 Q 1170.2771672771673,-18.362637362637365 1171.6947496947498,-14.357142857142858 Q 1173.1123321123323,-10.351648351648352 1175.9310134310135,-8.126373626373626 Q 1178.7496947496948,-5.901098901098901 1182.903540903541,-5.901098901098901 M 1242.4078144078144,0.0 L 1242.4078144078144,-5.076923076923077 L 1247.6495726495727,-6.065934065934066 L 1247.6495726495727,-41.901098901098905 L 1242.4078144078144,-42.89010989010989 L 1242.4078144078144,-48.0 L 1247.6495726495727,-48.0 L 1256.0561660561661,-48.0 L 1278.078144078144,-12.956043956043956 L 1278.2759462759464,-13.021978021978022 L 1278.2759462759464,-41.901098901098905 L 1272.2100122100123,-42.89010989010989 L 1272.2100122100123,-48.0 L 1285.7594627594628,-48.0 L 1291.001221001221,-48.0 L 1291.001221001221,-42.89010989010989 L 1285.7594627594628,-41.901098901098905 L 1285.7594627594628,0.0 L 1277.880341880342,0.0 L 1255.3308913308913,-34.91208791208791 L 1255.1330891330892,-34.87912087912088 L 1255.1330891330892,-6.065934065934066 L 1261.1990231990233,-5.076923076923077 L 1261.1990231990233,0.0 L 1242.4078144078144,0.0 M 1347.8351648351647,0.6923076923076923 Q 1342.923076923077,0.6923076923076923 1338.7032967032967,-0.5274725274725275 Q 1334.4835164835165,-1.7472527472527473 1330.4945054945056,-4.582417582417582 L 1330.4945054945056,-15.626373626373626 L 1336.923076923077,-15.626373626373626 L 1337.9780219780218,-8.472527472527473 Q 1339.7252747252746,-7.21978021978022 1342.2802197802198,-6.461538461538462 Q 1344.8351648351647,-5.7032967032967035 1347.8351648351647,-5.7032967032967035 Q 1350.7692307692307,-5.7032967032967035 1352.7637362637363,-6.543956043956044 Q 1354.7582417582416,-7.384615384615384 1355.8131868131868,-8.901098901098901 Q 1356.8681318681317,-10.417582417582418 1356.8681318681317,-12.494505494505495 Q 1356.8681318681317,-14.406593406593407 1355.9450549450548,-15.89010989010989 Q 1355.021978021978,-17.373626373626372 1352.8791208791208,-18.543956043956044 Q 1350.7362637362637,-19.714285714285715 1347.076923076923,-20.703296703296704 Q 1341.7032967032967,-22.153846153846153 1338.0934065934066,-24.13186813186813 Q 1334.4835164835165,-26.10989010989011 1332.6538461538462,-28.87912087912088 Q 1330.8241758241759,-31.64835164835165 1330.8241758241759,-35.40659340659341 Q 1330.8241758241759,-39.26373626373626 1332.9175824175825,-42.23076923076923 Q 1335.010989010989,-45.197802197802204 1338.7362637362637,-46.91208791208791 Q 1342.4615384615383,-48.62637362637363 1347.3406593406594,-48.659340659340664 Q 1352.6813186813188,-48.72527472527473 1356.7857142857142,-47.27472527472528 Q 1360.89010989011,-45.824175824175825 1363.7252747252746,-43.48351648351648 L 1363.7252747252746,-33.16483516483517 L 1357.4285714285713,-33.16483516483517 L 1356.2417582417581,-39.89010989010989 Q 1354.89010989011,-40.84615384615385 1352.7307692307693,-41.52197802197802 Q 1350.5714285714284,-42.1978021978022 1347.6373626373627,-42.1978021978022 Q 1345.131868131868,-42.1978021978022 1343.2197802197802,-41.37362637362637 Q 1341.3076923076924,-40.54945054945055 1340.2197802197802,-39.04945054945055 Q 1339.131868131868,-37.54945054945055 1339.131868131868,-35.472527472527474 Q 1339.131868131868,-33.659340659340664 1340.0879120879122,-32.30769230769231 Q 1341.043956043956,-30.956043956043956 1343.2857142857142,-29.851648351648354 Q 1345.5274725274726,-28.747252747252748 1349.3516483516482,-27.626373626373628 Q 1357.164835164835,-25.54945054945055 1361.1868131868132,-21.89010989010989 Q 1365.2087912087911,-18.23076923076923 1365.2087912087911,-12.56043956043956 Q 1365.2087912087911,-8.571428571428571 1363.0494505494505,-5.5879120879120885 Q 1360.89010989011,-2.604395604395605 1356.9835164835165,-0.9560439560439561 Q 1353.076923076923,0.6923076923076924 1347.8351648351647,0.6923076923076924" fill="#000000"/></g>
</svg>